<?xml version="1.0" encoding="UTF-8" standalone="no"?>
<!-- Created with Inkscape (http://www.inkscape.org/) -->

<svg
   width="100mm"
   height="100mm"
   viewBox="0 0 100 100"
   version="1.1"
   id="svg1"
   xml:space="preserve"
   inkscape:version="1.2.2 (b0a8486541, 2022-12-01)"
   sodipodi:docname="io.furios.Telephony.Messages.svg"
   xmlns:inkscape="http://www.inkscape.org/namespaces/inkscape"
   xmlns:sodipodi="http://sodipodi.sourceforge.net/DTD/sodipodi-0.dtd"
   xmlns="http://www.w3.org/2000/svg"
   xmlns:svg="http://www.w3.org/2000/svg"><sodipodi:namedview
     id="namedview1"
     pagecolor="#ffffff"
     bordercolor="#000000"
     borderopacity="0.25"
     inkscape:showpageshadow="2"
     inkscape:pageopacity="0.0"
     inkscape:pagecheckerboard="0"
     inkscape:deskcolor="#d1d1d1"
     inkscape:document-units="mm"
     inkscape:zoom="0.52473015"
     inkscape:cx="-240.12342"
     inkscape:cy="212.49017"
     inkscape:window-width="1440"
     inkscape:window-height="831"
     inkscape:window-x="0"
     inkscape:window-y="0"
     inkscape:window-maximized="1"
     inkscape:current-layer="layer1"
     showgrid="false" /><defs
     id="defs1" /><g
     inkscape:label="Layer 1"
     inkscape:groupmode="layer"
     id="layer1"><rect
       style="fill:#258cff;fill-opacity:1;stroke:none;stroke-width:2.423;stroke-opacity:0"
       id="rect20169"
       width="100"
       height="100"
       x="0"
       y="0"
       rx="25"
       ry="25" /><g
       fill="#2e3436"
       id="g25129"
       transform="matrix(4.375,0,0,4.375,15,15)"
       style="fill:#ffffff;fill-opacity:1"><path
         d="M 1.800781,3.019531 C 1.542969,3.070312 1.316406,3.226562 1.167969,3.445312 0.863281,3.90625 0.984375,4.527344 1.445312,4.832031 l 5.167969,3.445313 c 0.835938,0.558594 1.9375,0.558594 2.773438,0 L 14.554688,4.832031 C 15.015625,4.527344 15.136719,3.90625 14.832031,3.445312 14.527344,2.984375 13.90625,2.863281 13.445312,3.167969 L 8.277344,6.613281 c -0.171875,0.113281 -0.382813,0.113281 -0.554688,0 L 2.554688,3.167969 C 2.332031,3.019531 2.0625,2.96875 1.800781,3.019531 Z m 0,0"
         id="path25125"
         style="fill:#ffffff;fill-opacity:1" /><path
         d="M 3,2 C 1.355469,2 0,3.355469 0,5 v 6 c 0,1.644531 1.355469,3 3,3 h 10 c 1.644531,0 3,-1.355469 3,-3 V 5 C 16,3.355469 14.644531,2 13,2 Z m 0,2 h 10 c 0.570312,0 1,0.429688 1,1 v 6 c 0,0.570312 -0.429688,1 -1,1 H 3 C 2.429688,12 2,11.570312 2,11 V 5 C 2,4.429688 2.429688,4 3,4 Z m 0,0"
         id="path25127"
         style="fill:#ffffff;fill-opacity:1" /></g></g></svg>
